<svg xmlns="http://www.w3.org/2000/svg" viewBox="0 0 32 32" width="62" height="62" style="border-color: rgba(0,0,0,0);border-width: bpx;border-style: undefined" filter="none">
    
    <g>
    <path d="M27.424 26.976h-24.128c0.256-0.704 0.512-1.376 0.768-2.048 1.248-3.328 2.496-6.624 3.712-9.952 0.448-1.152 1.792-1.984 2.88-1.984 6.528 0.032 13.056 0.032 19.616 0 0.736 0 1.312 0.192 1.632 0.896 0.096 0.224 0.16 0.416 0 0.8-1.472 4.032-3.008 8.224-4.48 12.288zM10.048 5.024c0.032 0.096 0.032 0.192 0.096 0.288 0.127 0.159 0.694 1.293 1.248 2.434l0.448 1.022c0.096 0.192 0.224 0.256 0.448 0.256h13.696c0.928 0 1.76 0.672 1.92 1.632 0.032 0.096 0 0.224 0 0.352h-17.088c-1.92 0-3.456 0.832-4.48 2.496-0.352 0.544-0.544 1.216-0.768 1.856-1.184 3.104-2.336 6.208-3.52 9.344-0.096 0.224-0.192 0.288-0.448 0.224-0.768-0.192-1.536-0.8-1.6-1.504v-16.832c0-1.472 1.088-1.568 1.568-1.568h8.48z" fill="rgba(16.065,16.065,16.065,1)"></path>
    </g>
  </svg>